<svg xmlns="http://www.w3.org/2000/svg" width="800" height="560" viewBox="0 0 800 560">
  <defs>
    <linearGradient id="bg" x1="0" y1="0" x2="1" y2="1">
      <stop offset="0" stop-color="#fdf8f0"/>
      <stop offset="1" stop-color="#f1e2c7"/>
    </linearGradient>
    <radialGradient id="glow" cx="0.8" cy="0.12" r="0.6">
      <stop offset="0" stop-color="#e3b882" stop-opacity="0.42"/>
      <stop offset="1" stop-color="#e3b882" stop-opacity="0"/>
    </radialGradient>
    <linearGradient id="acc" x1="0" y1="0" x2="0" y2="1">
      <stop offset="0" stop-color="#d49a66"/>
      <stop offset="1" stop-color="#b0794f"/>
    </linearGradient>
    <filter id="sh"><feDropShadow dx="0" dy="14" stdDeviation="20" flood-color="#6f5c44" flood-opacity="0.20"/></filter>
  </defs>
  <rect width="800" height="560" fill="url(#bg)"/>
  <rect width="800" height="560" fill="url(#glow)"/>
  <circle cx="96" cy="470" r="150" fill="#c99257" opacity="0.10"/>

  <!-- 左：课程资料面板 -->
  <rect x="120" y="72" width="220" height="420" rx="18" fill="#fffdf9" filter="url(#sh)"/>
  <rect x="142" y="96" width="66" height="9" rx="4.5" fill="#4a3a2a"/>
  <rect x="220" y="96" width="30" height="9" rx="4.5" fill="url(#acc)"/>
  <g transform="translate(142,124)">
    <rect x="0"  width="176" height="46" rx="10" fill="#f5ecdc"/>
    <rect x="14" y="12" width="96" height="7" rx="3.5" fill="#c9b89b"/>
    <rect x="14" y="27" width="70" height="6" rx="3" fill="#dccfb4"/>
    <rect x="0"  y="58" width="176" height="46" rx="10" fill="#f5ecdc"/>
    <rect x="14" y="70" width="108" height="7" rx="3.5" fill="#c9b89b"/>
    <rect x="14" y="85" width="64" height="6" rx="3" fill="#dccfb4"/>
    <rect x="0"  y="116" width="176" height="46" rx="10" fill="#f5ecdc"/>
    <rect x="14" y="128" width="90" height="7" rx="3.5" fill="#c9b89b"/>
    <rect x="14" y="143" width="58" height="6" rx="3" fill="#dccfb4"/>
    <rect x="32" y="192" width="112" height="34" rx="17" fill="#efe3cf"/>
    <rect x="64" y="207" width="48" height="6" rx="3" fill="#a0855f"/>
  </g>
  <rect x="142" y="452" width="96" height="9" rx="4.5" fill="#e2d7c0"/>

  <!-- 右：问答对话 -->
  <rect x="382" y="72" width="298" height="420" rx="18" fill="#fffdf9" filter="url(#sh)"/>
  <rect x="382" y="72" width="298" height="52" rx="18" fill="#f3e6d2"/>
  <circle cx="420" cy="98" r="15" fill="url(#acc)"/>
  <path d="M414 98h12M420 92v12" stroke="#fff" stroke-width="2.5" stroke-linecap="round"/>
  <rect x="444" y="94" width="64" height="8" rx="4" fill="#4a3a2a"/>

  <!-- 用户气泡 -->
  <rect x="500" y="146" width="158" height="34" rx="17" fill="#f0dcc0"/>
  <rect x="520" y="160" width="120" height="6" rx="3" fill="#b79a72"/>

  <!-- AI 气泡 -->
  <rect x="404" y="198" width="254" height="96" rx="14" fill="#f5ecdc"/>
  <rect x="422" y="218" width="180" height="7" rx="3.5" fill="#b79a72"/>
  <rect x="422" y="234" width="160" height="7" rx="3.5" fill="#d0c2a6"/>
  <rect x="422" y="250" width="130" height="7" rx="3.5" fill="#d0c2a6"/>
  <rect x="422" y="270" width="120" height="14" rx="7" fill="#efe3cf"/>
  <circle cx="430" cy="283" r="4" fill="url(#acc)"/>
  <circle cx="444" cy="283" r="4" fill="url(#acc)" opacity="0.4"/>

  <!-- 引用 -->
  <rect x="404" y="312" width="200" height="26" rx="13" fill="#efe3cf"/>
  <rect x="452" y="324" width="140" height="6" rx="3" fill="#a0855f" opacity="0.7"/>

  <!-- 小测 -->
  <rect x="404" y="356" width="254" height="78" rx="14" fill="#f5ecdc"/>
  <rect x="422" y="374" width="150" height="7" rx="3.5" fill="#b79a72"/>
  <rect x="422" y="390" width="110" height="7" rx="3.5" fill="#d0c2a6"/>
  <rect x="422" y="408" width="64" height="16" rx="8" fill="#efe3cf"/>
  <rect x="496" y="408" width="72" height="16" rx="8" fill="url(#acc)"/>

  <!-- 输入框 -->
  <rect x="404" y="450" width="206" height="34" rx="17" fill="#f3e6d2"/>
  <rect x="420" y="463" width="120" height="6" rx="3" fill="#cdbfa6"/>
  <circle cx="646" cy="466" r="17" fill="url(#acc)"/>
</svg>